<svg version="1" xmlns="http://www.w3.org/2000/svg" width="1333.333" height="1333.333" viewBox="0 0 1000.000000 1000.000000"><path d="M0 500v500h1000V0H0v500zm489.8-59.8l-.3 109.3-38.5-.3c-32.2-.3-40.1-.7-48-2.2-24.7-4.7-43.4-14.4-58.6-30.2-8.8-9.2-13.9-16.9-18.5-27.9-11.8-28.7-11.9-67.5-.3-96.6 4.5-11.3 10.5-20.3 19.4-29.4 12.7-12.9 26.7-21.2 45.7-26.8 14.8-4.4 21-4.9 61.1-5l38.2-.1-.2 109.2zm103.8-107.7c39.4 6.9 68.2 28.2 80.8 59.8 11.6 29.1 11.5 67.9-.3 96.6-4.6 11-9.7 18.7-18.5 27.9-15.2 15.8-33.9 25.5-58.6 30.2-7.9 1.5-15.8 1.9-48 2.2l-38.5.3-.3-109.3L510 331h37.4c29.1 0 39.3.3 46.2 1.5zm-532 248.6c5.4 5 5.4 5.1 5.4 42.4 0 38.3-.2 39.8-6.2 43.5-2.5 1.5-5 2-10.5 2H43V577.7l8 .5c6.7.4 8.4.9 10.6 2.9zm461.2-.4c6 4.4 6.2 5.5 6.2 43.3 0 31.6-.2 34.8-1.8 38-2.7 5.2-7.2 7.1-15.7 6.8l-7-.3-.3-44c-.1-24.2 0-44.6.3-45.4.8-2.2 14.9-1 18.3 1.6zM101 635.5c.3 14.3.7 26.1.8 26.2.8 1 5.1 0 5.6-1.3.3-.9.6-12.8.6-26.5V609h7v25.5c0 20.8-.3 26.1-1.5 28.5-3.4 6.6-10.3 7.9-15.7 3.1l-3.3-2.9-.3-27.2-.3-27.1 3.3.3 3.3.3.5 26zm55-25.2c4.5 2.3 7 7.3 7 14.3 0 6.9-.9 10.2-3.5 12.8-1.7 1.6-1.6 1.8.6 4.2 2.3 2.4 2.4 3.3 2.4 14.7v12.2l-3.2.3-3.3.3v-11.8c0-12.6-.6-14.3-4.7-14.3-2.2 0-2.2.2-2.5 12.7l-.3 12.8-3.2.3-3.3.3V609h5.8c3.1 0 6.8.6 8.2 1.3zm50.6 2.1c3.3 3.3 3.4 3.7 3.4 11.1v7.6l-3.2-.3c-3.2-.3-3.3-.5-3.6-5.3-.4-7.6-1-9.5-3.2-9.5-2.5 0-4 2.9-4 7.8 0 6.3 1.8 9.9 7 13.7 5.8 4.2 7 7.3 7 17.2 0 7.2-.1 7.6-3.4 10.9-2.5 2.5-4.3 3.4-6.8 3.4-7 0-10.8-5.6-10.8-16v-6h7v6.3c0 6.5 1.1 8.7 4.1 8.7 2.2 0 2.9-2 2.9-8.9 0-6.5-1.1-8.5-6.9-12.5-4.8-3.4-7.1-8.6-7.1-16.2 0-9.8 4-15.4 10.8-15.4 2.5 0 4.3.9 6.8 3.4zm50.4.1c0 3.3-.2 3.5-3.5 3.5H250l-.2 26.2-.3 26.3-3.2.3-3.3.3V616h-3.5c-3.3 0-3.5-.2-3.5-3.5V609h21v3.5zm32.5 26.5v29.5l-3.2.3-3.3.3v-60.2l3.3.3 3.2.3V639zm45.1-26.4c2.5 3.1 3.4 6.6 3.4 13.5v4.9h-7v-5.6c0-6.4-1.3-9.4-4-9.4-2.9 0-3.1 2.2-2.8 25 .3 19.3.4 20.5 2.2 20.8 3.3.7 4.6-2.5 4.6-11 0-7.7 0-7.8-2.5-7.8-2.2 0-2.5-.4-2.5-3.5V636h12l-.2 16.2-.3 16.3-7.6.2c-6.9.2-7.8 0-9.8-2.1-1.3-1.3-2.7-4.1-3.2-6.3-1.2-5.3-1.1-38 .1-42.5.6-2 2.5-4.9 4.2-6.3 4.2-3.5 10.2-3 13.4 1.1zm48.2.1l.3 3.3H371v20h10.1l-.3 3.2c-.3 3.2-.5 3.3-5 3.6l-4.8.3V662h12.1l-.3 3.2-.3 3.3h-18l-.3-28.5c-.1-15.7 0-29.1.3-29.8.3-.9 2.7-1.2 9.2-1l8.8.3.3 3.2zm43.5.1c3.1 3.2 3.2 3.4 3.2 12.1 0 7.6-.3 9.4-2.2 11.9l-2.1 2.9 2.1 2.2c2 1.9 2.2 3.4 2.5 14.6l.4 12.5H423v-11.4c0-6.3-.3-12.1-.6-13-.4-1-1.8-1.6-3.5-1.6h-2.8l-.3 12.7-.3 12.8-3.2.3-3.3.3v-60.3l7 .4c6.3.3 7.3.7 10.3 3.6zm144.6-2.5c1.3.6 3.2 2.8 4.2 4.7 1.7 3 1.9 5.9 1.9 23.8 0 15.1-.4 21.1-1.4 23.6-4.1 9.9-16.6 8.4-19.6-2.3-1.3-4.7-1.3-37.5 0-42.3 2-7 9-10.6 14.9-7.5zm39.9 1.9c.5 1.8 2 7.8 3.3 13.3l2.4 10 .5-13 .5-13h7v59h-6.9l-3.5-14-3.6-14-.3 14.3-.3 14.3-3.2-.3-3.2-.3-.3-28.5c-.1-15.7 0-29 .3-29.7.2-.7 1.8-1.3 3.4-1.3 2.5 0 3.1.5 3.9 3.2zm49.1 4.5c1.1 4.3 2.6 10.3 3.3 13.3l1.3 5.5.5-13 .5-13h7v59h-6.9l-3.5-14-3.6-14-.3 14.3-.3 14.3-3.2-.3-3.2-.3-.3-28.5c-.1-15.7 0-29 .3-29.7.2-.7 1.8-1.3 3.4-1.3 2.8 0 3 .3 5 7.7zm57.9-4l.3 3.3H706v20h10.1l-.3 3.2c-.3 3.2-.5 3.3-5 3.6l-4.8.3V662h12.1l-.3 3.2-.3 3.3h-18l-.3-28.5c-.1-15.7 0-29.1.3-29.8.3-.9 2.7-1.2 9.2-1l8.8.3.3 3.2zm40.2-2.4c4.5 2.3 7 7.3 7 14.3 0 6.9-.9 10.2-3.5 12.8-1.7 1.6-1.6 1.8.6 4.2 2.3 2.4 2.4 3.3 2.4 14.7v12.2l-3.2.3-3.3.3v-11.8c0-12.6-.6-14.3-4.7-14.3-2.2 0-2.2.2-2.5 12.7l-.3 12.8h-7l-.3-28.5c-.1-15.7 0-29 .3-29.7.6-1.7 11.2-1.7 14.5 0zm50.2 1.6c3.1 2.8 3.3 3.3 3.6 11.1l.4 8.1-3.3-.3c-3.3-.3-3.4-.4-3.7-5.3-.4-7.6-1-9.5-3.2-9.5-2.5 0-4 2.9-4 7.8 0 6.3 1.8 9.9 7 13.7 5.8 4.2 7 7.3 7 17.2 0 7.2-.1 7.6-3.4 10.9-2.5 2.5-4.3 3.4-6.8 3.4-7 0-10.8-5.6-10.8-16v-6h7v6.3c0 6.5 1.1 8.7 4.1 8.7 2.2 0 2.9-2 2.9-8.9 0-6.5-1.1-8.5-6.9-12.5-2.4-1.7-4.6-4.3-5.5-6.7-2-4.9-2.1-13.9-.2-18.3 2.9-7 10.2-8.7 15.8-3.7zm50.8.6c0 3.3-.2 3.5-3.5 3.5H852l-.2 26.2-.3 26.3-3.2.3-3.3.3V616h-3.5c-3.3 0-3.5-.2-3.5-3.5V609h21v3.5zm46.1 24.5c2.6 15.1 4.8 28.5 4.8 29.7.1 2-.4 2.3-3.3 2.3-3.3 0-3.4-.2-4.2-4.8-.9-4.7-.9-4.7-5.1-5-4.6-.3-4.1-.9-5.8 7.3-.5 2.1-1.1 2.5-4.1 2.5-3.4 0-3.6-.2-3.1-2.8.3-1.5 2.4-14.4 4.7-28.7 2.3-14.3 4.3-26.6 4.6-27.3.2-.8 1.6-1.2 3.6-1l3.2.3 4.7 27.5zm48.5-24.6c3.3 3.3 3.4 3.7 3.4 11.1v7.6l-3.2-.3-3.3-.3-.5-7c-.4-5.9-.8-7-2.4-7.3-4-.8-4.6 2.1-4.6 22.8s.6 23.6 4.6 22.8c1.7-.3 1.9-1.3 2.2-9.6.3-8.7.2-9.2-1.8-9.2-1.6 0-2-.6-2-3.5V636h11v32.8h-7.2c-13.2 0-13.8-1.2-13.8-29.3 0-22.1.6-25.7 5.1-28.9 4-2.7 8.6-2.1 12.5 1.8z"/><path d="M406.9 359c-22.9 4.8-41.1 18.6-50.5 38.5-6.4 13.4-7.7 20.6-7.8 42.5 0 22.7 1.3 29.3 8.8 44.5 5.4 10.8 11.4 17.9 20.8 24.5 15.5 10.9 27.5 13.8 59.6 14.2l22.2.4V357l-22.2.1c-17.5 0-24.2.4-30.9 1.9zM540 440.3v83.3l22.3-.4c32-.4 44-3.3 59.5-14.2 9.4-6.6 15.4-13.7 20.8-24.5 7.5-15.2 8.8-21.8 8.8-44.5-.1-16.9-.4-20.6-2.2-27.5-6.3-23.1-18.6-38.1-39.1-47.8-13.1-6.2-22.6-7.7-48.3-7.7H540v83.3zM51 624v37h3c1.9 0 3.3-.7 4-1.9 1.5-2.9 1.4-69.3-.2-70.9-.7-.7-2.5-1.2-4-1.2H51v37zM513 624v37h3c1.9 0 3.3-.7 4-1.9 1.5-2.9 1.4-69.3-.2-70.9-.7-.7-2.5-1.2-4-1.2H513v37zM149 626c0 9.2.2 10 1.9 10 3.7 0 5.1-2.7 5.1-10s-1.4-10-5.1-10c-1.7 0-1.9.8-1.9 10zM416 626c0 9.2.2 10 1.9 10 3.7 0 5.1-2.7 5.1-10s-1.4-10-5.1-10c-1.7 0-1.9.8-1.9 10zM564.1 617.4c-.8.9-1.1 7.8-.9 22.7.3 20.2.4 21.4 2.2 21.7 4 .8 4.6-2.1 4.6-22.6 0-11.4-.4-20.1-1-21.3-1.2-2.2-3.3-2.5-4.9-.5zM751 626c0 9.2.2 10 1.9 10 3.7 0 5.1-2.7 5.1-10s-1.4-10-5.1-10c-1.7 0-1.9.8-1.9 10zM895.7 640.3c-.4 2.9-1 6.7-1.3 8.5-.6 3.1-.5 3.2 2.6 3.2h3.3l-.7-4.3c-.4-2.3-1-6.1-1.3-8.5-.8-5.7-1.9-5.3-2.6 1.1z"/></svg>